<?xml version="1.0" encoding="UTF-8"?>
<svg id="Layer_1" data-name="Layer 1" xmlns="http://www.w3.org/2000/svg" viewBox="0 0 396.5 169.13">
  <defs>
    <style>
      .cls-1 {
        fill: #010101;
        stroke-width: 4px;
      }

      .cls-1, .cls-2 {
        stroke: #010101;
        stroke-miterlimit: 10;
      }

      .cls-2 {
        fill: #ebeaf4;
        stroke-width: 8px;
      }

      .cls-3 {
        fill: #ed355d;
      }
    </style>
  </defs>
  <path class="cls-1" d="M41.25,9.22h319.8c18.46,0,33.45,14.99,33.45,33.45v91.01c0,18.46-14.99,33.45-33.45,33.45H8.77c-.54,0-.97-.44-.97-.97V42.67c0-18.46,14.99-33.45,33.45-33.45Z"/>
  <path class="cls-2" d="M37.45,4h319.8c18.46,0,33.45,14.99,33.45,33.45v91.01c0,18.46-14.99,33.45-33.45,33.45H4.97c-.54,0-.97-.44-.97-.97V37.45C4,18.99,18.99,4,37.45,4Z"/>
  <path class="cls-3" d="M122.73,79.92c0,18.75-15.75,33.32-35.47,33.32h-6.75v19.29h-29.68V46.81h36.43c19.72,0,35.47,14.89,35.47,33.11ZM76.76,80.03c0,4.5,3.75,8.14,8.25,8.14s8.14-3.64,8.14-8.14-3.64-8.25-8.14-8.25-8.25,3.64-8.25,8.25Z"/>
  <path class="cls-3" d="M124.55,80.03c0-19.29,16.07-34.93,36-34.93s35.9,15.54,35.9,34.93-16.18,35.04-35.9,35.04-36-15.75-36-35.04ZM168.69,80.13c0-4.5-3.75-8.25-8.25-8.25s-8.25,3.75-8.25,8.25,3.75,8.25,8.25,8.25,8.25-3.75,8.25-8.25Z"/>
  <path class="cls-3" d="M271.98,80.03c0-19.29,16.07-34.93,36-34.93s35.9,15.54,35.9,34.93-16.18,35.04-35.9,35.04-36-15.75-36-35.04ZM316.13,80.13c0-4.5-3.75-8.25-8.25-8.25s-8.25,3.75-8.25,8.25,3.75,8.25,8.25,8.25,8.25-3.75,8.25-8.25Z"/>
  <path class="cls-3" d="M198.21,80.08c0-19.29,16.07-34.93,36-34.93s35.9,15.54,35.9,34.93-16.18,35.04-35.9,35.04-36-15.75-36-35.04ZM242.36,80.19c0-4.5-3.75-8.25-8.25-8.25s-8.25,3.75-8.25,8.25,3.75,8.25,8.25,8.25,8.25-3.75,8.25-8.25Z"/>
  <rect class="cls-3" x="220.74" y="85.76" width="23.96" height="63.21" transform="translate(135.13 -124.32) rotate(41.25)"/>
  <rect class="cls-3" x="194.97" y="35.25" width="23.96" height="30.02" transform="translate(18.22 148.92) rotate(-41.25)"/>
</svg>